<svg width="81" height="83" viewBox="0 0 81 83" fill="none" xmlns="http://www.w3.org/2000/svg">
<mask id="mask0_2001_29" style="mask-type:luminance" maskUnits="userSpaceOnUse" x="0" y="0" width="81" height="83">
<path d="M80.0581 33.907H41.4419V49.9186H63.6697C61.5976 60.0907 52.9326 65.9302 41.4419 65.9302C27.8791 65.9302 16.9535 55.0046 16.9535 41.4419C16.9535 27.8791 27.8791 16.9535 41.4419 16.9535C47.2814 16.9535 52.5558 19.0256 56.7 22.4163L68.7558 10.3605C61.4093 3.95581 51.9907 0 41.4419 0C18.4605 0 0 18.4605 0 41.4419C0 64.4233 18.4605 82.8837 41.4419 82.8837C62.1628 82.8837 81 67.814 81 41.4419C81 38.993 80.6233 36.3558 80.0581 33.907Z" fill="white"/>
</mask>
<g mask="url(#mask0_2001_29)">
<path d="M-3.76746 65.9302V16.9535L28.2558 41.4419L-3.76746 65.9302Z" fill="#FBBC05"/>
</g>
<mask id="mask1_2001_29" style="mask-type:luminance" maskUnits="userSpaceOnUse" x="0" y="0" width="81" height="83">
<path d="M80.0581 33.907H41.4419V49.9186H63.6697C61.5976 60.0907 52.9326 65.9302 41.4419 65.9302C27.8791 65.9302 16.9535 55.0046 16.9535 41.4419C16.9535 27.8791 27.8791 16.9535 41.4419 16.9535C47.2814 16.9535 52.5558 19.0256 56.7 22.4163L68.7558 10.3605C61.4093 3.95581 51.9907 0 41.4419 0C18.4605 0 0 18.4605 0 41.4419C0 64.4233 18.4605 82.8837 41.4419 82.8837C62.1628 82.8837 81 67.814 81 41.4419C81 38.993 80.6233 36.3558 80.0581 33.907Z" fill="white"/>
</mask>
<g mask="url(#mask1_2001_29)">
<path d="M-3.76746 16.9535L28.2558 41.4419L41.4418 29.9512L86.6511 22.6047V-3.76744H-3.76746V16.9535Z" fill="#EA4335"/>
</g>
<mask id="mask2_2001_29" style="mask-type:luminance" maskUnits="userSpaceOnUse" x="0" y="0" width="81" height="83">
<path d="M80.0581 33.907H41.4419V49.9186H63.6697C61.5976 60.0907 52.9326 65.9302 41.4419 65.9302C27.8791 65.9302 16.9535 55.0046 16.9535 41.4419C16.9535 27.8791 27.8791 16.9535 41.4419 16.9535C47.2814 16.9535 52.5558 19.0256 56.7 22.4163L68.7558 10.3605C61.4093 3.95581 51.9907 0 41.4419 0C18.4605 0 0 18.4605 0 41.4419C0 64.4233 18.4605 82.8837 41.4419 82.8837C62.1628 82.8837 81 67.814 81 41.4419C81 38.993 80.6233 36.3558 80.0581 33.907Z" fill="white"/>
</mask>
<g mask="url(#mask2_2001_29)">
<path d="M-3.76746 65.9302L52.7442 22.6047L67.6256 24.4884L86.6511 -3.76744V86.6512H-3.76746V65.9302Z" fill="#34A853"/>
</g>
<mask id="mask3_2001_29" style="mask-type:luminance" maskUnits="userSpaceOnUse" x="0" y="0" width="81" height="83">
<path d="M80.0581 33.907H41.4419V49.9186H63.6697C61.5976 60.0907 52.9326 65.9302 41.4419 65.9302C27.8791 65.9302 16.9535 55.0046 16.9535 41.4419C16.9535 27.8791 27.8791 16.9535 41.4419 16.9535C47.2814 16.9535 52.5558 19.0256 56.7 22.4163L68.7558 10.3605C61.4093 3.95581 51.9907 0 41.4419 0C18.4605 0 0 18.4605 0 41.4419C0 64.4233 18.4605 82.8837 41.4419 82.8837C62.1628 82.8837 81 67.814 81 41.4419C81 38.993 80.6233 36.3558 80.0581 33.907Z" fill="white"/>
</mask>
<g mask="url(#mask3_2001_29)">
<path d="M86.6512 86.6512L28.2558 41.4419L20.7209 35.7907L86.6512 16.9535V86.6512Z" fill="#4285F4"/>
</g>
</svg>
