<?xml version="1.0" encoding="UTF-8"?>
<!DOCTYPE svg PUBLIC "-//W3C//DTD SVG 1.1//EN" "http://www.w3.org/Graphics/SVG/1.1/DTD/svg11.dtd">
<!-- Creator: CorelDRAW -->
<svg xmlns="http://www.w3.org/2000/svg" xml:space="preserve" width="55.1448mm" height="55.1448mm" version="1.1" style="shape-rendering:geometricPrecision; text-rendering:geometricPrecision; image-rendering:optimizeQuality; fill-rule:evenodd; clip-rule:evenodd"
viewBox="0 0 42.51 42.51"
 xmlns:xlink="http://www.w3.org/1999/xlink"
 xmlns:xodm="http://www.corel.com/coreldraw/odm/2003">
 <defs>
  <style type="text/css">
   <![CDATA[
    .str0 {stroke:#0066FF;stroke-width:1.56;stroke-linecap:round;stroke-linejoin:round;stroke-miterlimit:22.9256}
    .fil1 {fill:none}
    .fil0 {fill:#008AFF}
    .fil2 {fill:white}
   ]]>
  </style>
 </defs>
 <g id="Layer_x0020_1">
  <metadata id="CorelCorpID_0Corel-Layer"/>
  <g id="_2833129390352">
   <rect class="fil0" x="-0" width="42.51" height="42.51" rx="59.08" ry="59.08"/>
   <g>
    <path class="fil1 str0" d="M25.34 21.26l5.69 3.28c0.97,0.56 1.31,1.81 0.75,2.79 -0.56,0.97 -1.81,1.31 -2.79,0.75l-5.69 -3.28 0 6.57c0,1.12 -0.92,2.04 -2.04,2.04 -1.12,0 -2.04,-0.92 -2.04,-2.04l0 -6.57 -5.69 3.28c-0.97,0.56 -2.22,0.23 -2.79,-0.75 -0.56,-0.97 -0.23,-2.22 0.75,-2.79l5.69 -3.28 -5.69 -3.28c-0.97,-0.56 -1.31,-1.81 -0.75,-2.79 0.56,-0.97 1.81,-1.31 2.79,-0.75l5.69 3.28 0 -6.57c0,-1.12 0.92,-2.04 2.04,-2.04 1.12,0 2.04,0.92 2.04,2.04l0 6.57 5.69 -3.28c0.97,-0.56 2.22,-0.23 2.79,0.75 0.56,0.97 0.23,2.22 -0.75,2.79l-5.69 3.28z"/>
    <path id="_1" class="fil2" d="M25.34 21.26l5.69 3.28c0.97,0.56 1.31,1.81 0.75,2.79 -0.56,0.97 -1.81,1.31 -2.79,0.75l-5.69 -3.28 0 6.57c0,1.12 -0.92,2.04 -2.04,2.04 -1.12,0 -2.04,-0.92 -2.04,-2.04l0 -6.57 -5.69 3.28c-0.97,0.56 -2.22,0.23 -2.79,-0.75 -0.56,-0.97 -0.23,-2.22 0.75,-2.79l5.69 -3.28 -5.69 -3.28c-0.97,-0.56 -1.31,-1.81 -0.75,-2.79 0.56,-0.97 1.81,-1.31 2.79,-0.75l5.69 3.28 0 -6.57c0,-1.12 0.92,-2.04 2.04,-2.04 1.12,0 2.04,0.92 2.04,2.04l0 6.57 5.69 -3.28c0.97,-0.56 2.22,-0.23 2.79,0.75 0.56,0.97 0.23,2.22 -0.75,2.79l-5.69 3.28z"/>
   </g>
  </g>
 </g>
</svg>
